<svg xmlns="http://www.w3.org/2000/svg" viewBox="0 0 24 24"><defs><style>.cls-1{fill:#fff;}.cls-2{fill:#111320;}.cls-3{fill:#ffc300;}</style></defs><g id="Business_and_Finance_ic-law" data-name="Business and Finance/ic-law"><rect class="cls-1" x="2.5" y="17.77" width="18.5" height="4.23" rx="2"/><path class="cls-2" d="M23.14,20.17c0-.59-1.41-2.13-1.93-2.4A7,7,0,0,0,18,17c-1.4,0-2.83.11-4.23.16l-2,.07a27.58,27.58,0,0,0-4.44.42A2.71,2.71,0,0,0,4.82,17,2.74,2.74,0,0,0,3,19.73a2.43,2.43,0,0,0,2.56,2c4.64.26,9.36,0,14,.09.89,0,.06-1.22-.4-1.23-2.75,0-5.5-.08-8.25-.08-1.66,0-3.33,0-5,0-1.37,0-2,.22-1.59-1.79,3,.19,5.91,0,8.87.23l6,.44c.59,0,1.15.07,1.71.14-.39.87-.78,1.74-1.18,2.61-.47.15-.64.81,0,.77a2.2,2.2,0,0,0,1.52-.42,2.83,2.83,0,0,1,1.24-.92.24.24,0,0,0,.32-.12A1.56,1.56,0,0,0,23.14,20.17Z"/><path class="cls-3" d="M12.07,4.74,6.91,7.34a1,1,0,0,0,.47,2H17.71a1,1,0,0,0,.47-2L13,4.74A1,1,0,0,0,12.07,4.74Z"/><path class="cls-2" d="M22.53,9.17C22.4,7.55,21.32,6.67,20,5.88a50,50,0,0,1-4.59-3.11c-1.4-1-2.24-1.79-4-1.26-.43.13-.76.25-.74.74a.57.57,0,0,0,.68.6,16.48,16.48,0,0,1,8.19,4.5l.93,1.74c-.24,1.2-.9,1.66-2,1.39l-3.21-.05c-2.61,0-5.21,0-7.81-.1l-3-2.62a1.22,1.22,0,0,1,1-1L7,5.9,9.56,4.59c.85-.43.6-2.38-.53-1.8L5.4,4.63c-1.19.6-1.81.74-2.29,2.08a3.16,3.16,0,0,0,.1,2.36,3.82,3.82,0,0,0,4,2.15,40,40,0,0,0,7.57,1.1c1.23.12,2.47.22,3.7.31.58,0,1.17.09,1.74.17C22,12.47,22.66,10.79,22.53,9.17Z"/><path class="cls-2" d="M7,9.81l0,0H7a1.36,1.36,0,0,0,0-.2c0-.12-.17,0-.41.1v-.1c0-.28-.79.26-1,.65-.12,0-.26,0-.24.19.07.86.1,1.73.13,2.61,0,1.51,0,3-.06,4.55,0,.21.13.18.24.13v0c0,.32.12.16.26-.11h0v0c0,.07,0,.11.06.13V18c0,.33.14.19.27.13s.27-1.14.28-1.36c.22-2.39.64-4.77,1-7.14C7.62,9.28,7,9.83,7,9.81Z"/><path class="cls-2" d="M13.35,10.86l0,0h0a1.23,1.23,0,0,1,0-.2c0-.12-.18,0-.42.1v-.11c0-.28-.78.27-1,.65-.13,0-.26,0-.25.19.07.86.1,1.73.13,2.6l-.06,4.56c0,.22.13.19.25.13v0c0,.33.12.17.25-.11h0v0a.15.15,0,0,0,.06.13v.21c0,.32.14.19.27.12s.27-1.14.29-1.35c.21-2.39.64-4.77,1-7.14C14,10.33,13.32,10.89,13.35,10.86Z"/><path class="cls-2" d="M18.75,10.56V10.5h0c0-.07,0-.13,0-.2s-.17,0-.39.09c0,0,0-.06,0-.09,0-.27-.74.24-1,.61-.12,0-.25,0-.24.18.06.9.1,1.8.13,2.69,0,1.39,0,2.77,0,4.16,0,.25.1.16.22,0v.19c0,.29.12.16.27-.1v0c0,.1,0,.14.05.14v.15c0,.73.56-1,.58-1.13.26-2.28.58-4.56.91-6.83C19.29,10.24,19,10.36,18.75,10.56Z"/></g></svg>