<svg xmlns="http://www.w3.org/2000/svg" viewBox="0 0 24 24"><defs><style>.cls-1{fill:#111320;}</style></defs><g id="Design_ic-artboard" data-name="Design/ic-artboard"><path class="cls-1" d="M19.31,6.84H11.36c-2.95-.08-5.9-.21-8.85-.44L1,6.12c-.46-.09.23.7.19.65l.13.17a2.51,2.51,0,0,0,.51.56,2.29,2.29,0,0,0,.34.3c.14.26.48.6.66.6a26.42,26.42,0,0,0,6,.06c1-.2,2.05-.33,3.08-.45l5.22,0,0,.32c0,.3,0,.59.06.89a15.68,15.68,0,0,0-.73,3.17c-.29,2.77.11,5.61-.29,8.39,0,.23-.06.47.23.45a.18.18,0,0,0,.09-.07c0,.17.07.27.13.28s.15-.07.21-.19l.07,0,0,.22c-.07.45.21.19.35.11.31-.19.47-1.38.52-1.72a28,28,0,0,0,.13-4.2c0-1.67-.23-6.31,1.61-7.72.1-.08,0-.16-.14-.24.05,0,.08-.1.13-.14s.09-.17,0-.24l.08-.09C19.78,7.08,19.56,6.84,19.31,6.84Z"/><path class="cls-1" d="M23.05,17.06c.21,0,0-.46-.34-.77.5,0-.11-.81-.44-.81-5-.12-10-.13-15-.15a27.56,27.56,0,0,0,.38-3.74c.13-1.74.1-3.52.12-5.27A33,33,0,0,1,8,2.88a.23.23,0,0,0,0-.16V2.65A.74.74,0,0,0,8,2.3,2.48,2.48,0,0,1,8,2c.06-.46-.12-.37-.3-.13,0-.38-.39,0-.5.32a1.26,1.26,0,0,0-.33.61c-.16,1.3-.17,2.63-.23,3.94a41.65,41.65,0,0,1-.47,5.11,7.63,7.63,0,0,1-1.53,4c-.17.13,0,.26.26.37a.83.83,0,0,0,.4.23c.06.3,1.29.52,1.41.52,5.54.13,11,.26,16.56.75C23.48,17.74,23.31,17.39,23.05,17.06Z"/></g></svg>