<svg xmlns="http://www.w3.org/2000/svg" viewBox="0 0 24 24"><defs><style>.cls-1{fill:#fff;}.cls-2{fill:#111320;}</style></defs><g id="Development_ic-code" data-name="Development/ic-code"><polyline class="cls-1" points="9 7 3.5 12.5 9 18"/><path class="cls-2" d="M9.91,17.66C8.08,15.84,5.77,14.53,4,12.58L9.26,7.4c.53-.53-.63-.85-.94-.54-1.83,1.82-3.67,3.63-5.49,5.45a.37.37,0,0,0,0,.55c2.19,2.27,4.6,4.31,6.66,6.72C9.9,20,10.29,18,9.91,17.66Z"/><polyline class="cls-1" points="12.5 18 18 12.5 12.5 7"/><path class="cls-2" d="M21.75,12.51a41.48,41.48,0,0,1-4.1-3.13c-1.23-1.13-2.23-2.45-3.34-3.69-.5-.56-.65,1.76-.59,1.95s.2.62.28.94a23.67,23.67,0,0,1,1.72,1.75c.35.41,2,2,1.82,2.62,0,.28-.24.45-.59.53l-1.88,1.83c-.91.89-1.82,1.78-2.74,2.66-.5.48,1,.49,1,.49.58,0,2.45.31,2.94-.17,1.84-1.81,3.65-3.66,5.5-5.46C21.92,12.71,21.91,12.6,21.75,12.51Z"/></g></svg>