<svg xmlns="http://www.w3.org/2000/svg" viewBox="0 0 24 24"><defs><style>.cls-1{fill:#fff;}.cls-2{fill:#111320;}.cls-3{fill:#ffc300;}</style></defs><g id="Development_ic-browser-default" data-name="Development/ic-browser-default"><rect class="cls-1" x="0.5" y="1.5" width="21" height="21" rx="1.76"/><path class="cls-2" d="M21.05,1A26.94,26.94,0,0,0,15.37.83C13.91.87,12.45,1,11,1c-1.69.06-3.25.29-4.88.5C4.16.61,6.36,1,4.18.51,3.59.37,1.73,2,1.55,2.51a7.26,7.26,0,0,0-.5,2.89c.05,2.45.12,4.91.18,7.36,0,1.25.07,2.5.08,3.75l0,1.65L.94,19.43a2,2,0,0,0,.31,1.88c1.12,1.55,3.54,1,5.21,1,4.6,0,9.2,0,13.8.06.83,0,0-1.14-.37-1.15-3.28,0-6.56-.07-9.84-.07H4.41A11.89,11.89,0,0,1,1.94,21a33.26,33.26,0,0,1,.46-5.89c.18-1.79.29-3.57.39-5.36l.27-5.07a19.72,19.72,0,0,1,.19-2.22,34.75,34.75,0,0,1,7.06.13L16,2.93a40.53,40.53,0,0,1,6,.33c-.06,3.67-.09,7.33-.29,11-.1,1.88-.18,3.77-.25,5.66a10.67,10.67,0,0,1-.23,2.23l-1.08.47c-.24.05-1.17.83-.44.84a2.57,2.57,0,0,0,2.87-2.52c.26-2.07.13-4.27.2-6.36A49.87,49.87,0,0,0,22.83,9c-.06-.78-.7-3.72.5-4l.11-.14c0-.49,0-1,.07-1.46S21.63,1.12,21.05,1Z"/><circle class="cls-3" cx="5.5" cy="5.5" r="1"/><path class="cls-2" d="M4.78,5.35a1.8,1.8,0,0,0,.74,2.1c.93.47,1.66-.43,1.94-1.21.12-.34-.08-.36-.34-.26l.28-.32v0c0,.19.63,1,.7.39A1.7,1.7,0,1,0,4.78,5.35Z"/><circle class="cls-3" cx="9.5" cy="5.5" r="1"/><path class="cls-2" d="M8.78,5.35a1.82,1.82,0,0,0,.74,2.1c.93.47,1.67-.43,1.94-1.21.11-.34-.08-.36-.34-.26l.27-.32v0c0,.19.63,1,.7.39A1.7,1.7,0,1,0,8.78,5.35Z"/><circle class="cls-3" cx="13.5" cy="5.5" r="1"/><path class="cls-2" d="M12.78,5.35a1.82,1.82,0,0,0,.74,2.1c.93.47,1.66-.43,1.94-1.21.12-.34-.08-.36-.34-.26l.28-.32v0c0,.19.63,1,.7.39A1.7,1.7,0,0,0,12.78,5.35Z"/><path class="cls-2" d="M22.63,9.59h.08c.24,0,.18-.4-.09-.4-1.92,0-3.85,0-5.77,0C12.57,9.16,8.3,9.06,4,8.82L2.49,8.6c-.07,0,0,.14.11.35a1.85,1.85,0,0,0,.67.87l.19.16c.1.22.4.54.57.54a64.58,64.58,0,0,0,7-.09c.89-.11,1.77-.19,2.64-.26l8.92,0c.37,0,.19-.16.06-.29l0,0h0c.24,0,.13-.11-.09-.24h0A.1.1,0,0,0,22.63,9.59Z"/></g></svg>