<svg xmlns="http://www.w3.org/2000/svg" viewBox="0 0 24 24"><defs><style>.cls-1{fill:#fff;}.cls-2{fill:#111320;}</style></defs><g id="User_Interface_ic-settings" data-name="User Interface/ic-settings"><path class="cls-1" d="M12.93,2.56l.72,1.23A2.45,2.45,0,0,0,16.1,5l1.41-.2a2.24,2.24,0,0,1,2.41,3l-.51,1.33a2.45,2.45,0,0,0,.6,2.65l1,1a2.24,2.24,0,0,1-.86,3.77l-1.36.43a2.44,2.44,0,0,0-1.69,2.12L17,20.48a2.24,2.24,0,0,1-3.48,1.68l-1.18-.79a2.45,2.45,0,0,0-2.72,0l-1.18.79A2.24,2.24,0,0,1,5,20.48l-.12-1.42a2.44,2.44,0,0,0-1.69-2.12l-1.36-.43A2.24,2.24,0,0,1,1,12.74l1-1a2.45,2.45,0,0,0,.6-2.65L2.08,7.79a2.24,2.24,0,0,1,2.41-3L5.9,5A2.45,2.45,0,0,0,8.35,3.79l.72-1.23A2.24,2.24,0,0,1,12.93,2.56Z"/><path class="cls-2" d="M22.48,13.36c-.5-1.12-.67-.78-1.35-1.45a2.32,2.32,0,0,1-.38-2.41L21,9.39a.3.3,0,0,0,.26-.24c.09-.69.18-1.38.26-2.07S20.42,5,19.88,4.71A3.53,3.53,0,0,0,17,4.49a1.76,1.76,0,0,1-2.27-1c.56.2,1,.28.91,0-.25-.82-.39-1.39-1.24-1.79a3.35,3.35,0,0,0-.89-.24,6.17,6.17,0,0,0-3.11.11c-.83.31-1.16.86-1.81,1.45l-.37.31A12.22,12.22,0,0,1,7,4.26a3,3,0,0,0-1.71-.17A4.2,4.2,0,0,0,3,6.09a6,6,0,0,0-.51,1.73c0,.57.19,1.11.18,1.68,0,.13,0,.28-.06.4a10.11,10.11,0,0,1-.25,1.79c-.09.06-.18.1-.26.16a2.48,2.48,0,0,0-1,2.33c.25,2.7,3.56,2.61,4.4,5a2.07,2.07,0,0,0,.29,2.32,2.67,2.67,0,0,0,1,.71c1.46.68,2.54-.53,3.87-1a2.57,2.57,0,0,1,2.57.65.89.89,0,0,0,.11.36,1.65,1.65,0,0,0,1.08.65,2.52,2.52,0,0,0,2.42-.54c1.12-1,.67-1.75.92-2.94.67-3.24,1.47-1.74,2.79-1.69a2.43,2.43,0,0,0,1.82-1.15A3.67,3.67,0,0,0,22.48,13.36Zm-5,4.23a2.87,2.87,0,0,0-.82,1.85l0,.65c.13,1.21-.68,1.78-2.44,1.72-.91-.64-.94-1.59-2.16-1.95-2-.6-3.07,1.69-5,1.69l-.23-.13c-.94-1.67.58-3.42-.58-5-1-1.38-3-.86-4.18-2.1l1.19-1.68c1.46-.88,3-1.9,2.51-3.78C5.4,7.74,4.4,7,4.49,5.82a14.92,14.92,0,0,1,2.41,0c1.22.41,2.58.76,3.67-.1s1.48-2.12,2.28-3.16l.07,0a6.85,6.85,0,0,0,.82.44,2.33,2.33,0,0,0-.27,1.47c.59,1.06,1.1,2,2.39,2.35,1.52.4,3.25-.58,4.72,0,.2,1.42-.45,1.78-1,3a2.81,2.81,0,0,0-.1,2.15c.51,1.23,1.68,2,2.44,3.08l0,.29-.07.25C20.54,17.33,18.83,16.18,17.45,17.59Z"/><circle class="cls-1" cx="12" cy="13" r="4"/><path class="cls-2" d="M15.64,8.77A5.53,5.53,0,0,0,7,12.2c-.45,2.4.52,5.14,3,6a3.86,3.86,0,0,0,5.28-2.94c.21-.81-1.28-1.41-1.54-.39.53-2.1-7.72-1.77-3.95-4.74a1.94,1.94,0,0,1,1-.58Q14.45,7.83,16,14.77c-.15.91,1.44.5,1.53-.14C17.86,12.4,17.56,10.25,15.64,8.77Z"/></g></svg>