<?xml version="1.0" encoding="UTF-8" standalone="no"?>
<svg
   xmlns:dc="http://purl.org/dc/elements/1.1/"
   xmlns:cc="http://creativecommons.org/ns#"
   xmlns:rdf="http://www.w3.org/1999/02/22-rdf-syntax-ns#"
   xmlns:svg="http://www.w3.org/2000/svg"
   xmlns="http://www.w3.org/2000/svg"
   xmlns:sodipodi="http://sodipodi.sourceforge.net/DTD/sodipodi-0.dtd"
   xmlns:inkscape="http://www.inkscape.org/namespaces/inkscape"
   viewBox="0 0 24 24"
   version="1.1"
   id="svg953"
   sodipodi:docname="user-interface-ic-star.svg"
   inkscape:version="0.92.4 (5da689c313, 2019-01-14)">
  <metadata
     id="metadata957">
    <rdf:RDF>
      <cc:Work
         rdf:about="">
        <dc:format>image/svg+xml</dc:format>
        <dc:type
           rdf:resource="http://purl.org/dc/dcmitype/StillImage" />
      </cc:Work>
    </rdf:RDF>
  </metadata>
  <sodipodi:namedview
     pagecolor="#ffffff"
     bordercolor="#666666"
     borderopacity="1"
     objecttolerance="10"
     gridtolerance="10"
     guidetolerance="10"
     inkscape:pageopacity="0"
     inkscape:pageshadow="2"
     inkscape:window-width="1366"
     inkscape:window-height="746"
     id="namedview955"
     showgrid="false"
     inkscape:zoom="24.75"
     inkscape:cx="12"
     inkscape:cy="12"
     inkscape:window-x="-8"
     inkscape:window-y="-8"
     inkscape:window-maximized="1"
     inkscape:current-layer="svg953" />
  <defs
     id="defs946">
    <style
       id="style944">.cls-1{fill:#ffc300;}.cls-2{fill:#111320;}</style>
  </defs>
  <g
     id="User_Interface_ic-star"
     data-name="User Interface/ic-star">
    <path
       class="cls-1"
       d="M10.12,2.11a1.18,1.18,0,0,1,1.11-.81,1.16,1.16,0,0,1,1.11.81l2,6.21h6.49a1.17,1.17,0,0,1,.68,2.11l-5.25,3.82,2,6.17a1.16,1.16,0,0,1-1.8,1.3L11.23,17.9,6,21.71a1.17,1.17,0,0,1-1.81-1.29l2-6.16L1,10.43a1.17,1.17,0,0,1-.43-1.3,1.18,1.18,0,0,1,1.11-.81H8.11Z"
       id="path948"
       style="fill:#cf9625;fill-opacity:1" />
    <path
       class="cls-2"
       d="M21.89,7.86c-1.15-.47-2.21-.13-3.44-.07-.93,0-1.87,0-2.8.16-.1-.23-.21-.45-.34-.69a4.1,4.1,0,0,1-.66-2.17c-.81-1-.81-1.75,0-2.29A1.32,1.32,0,0,0,13.85.56,5.62,5.62,0,0,0,10.48,2c-.08.15-.16.3-.23.45l-.08,0c-.65.56-.73,1.46-1,2.24A19.39,19.39,0,0,1,8.09,7.27,2.64,2.64,0,0,1,5.88,8.36c-1.66-.47-4-2.25-4.37.56-.26,2.1,1.88,3.23,3.2,4.51a21.3,21.3,0,0,1,1.6,1.69.73.73,0,0,1,0,.9L6,17.1a28.74,28.74,0,0,0-1.87,3.4A1.57,1.57,0,0,0,5.76,22c1,0,2.26-1.23,3-1.72s1.58-1,2.38-1.5c.77-.8,1.44-.79,2,0a15.48,15.48,0,0,1,3.25,3.11c.29.44.32.81,1,1,.87.24,1.73-.67,1.95-1.44a3.06,3.06,0,0,0-.42-2c-.62-1.61-1.22-3.24-1.74-4.9a21.39,21.39,0,0,0,2-1.54c2-1.53,1.65-1.23,3.35-1.46.91-.13,1.32-.48,1.3-1.37A4.28,4.28,0,0,0,21.89,7.86Zm-2.05,3.85a20.42,20.42,0,0,1-3.65,2.48c-.13.05-.1.33-.07.42.37,1.17.74,2.34,1.1,3.51a15.38,15.38,0,0,1,1,3.56c-1.22.4-2.72-1.74-3.36-2.35a29,29,0,0,1-2.61-2.59c-.11-.14-.34-.06-.43,0A23.37,23.37,0,0,1,7.52,20a8.79,8.79,0,0,1-2,1.17c-.33-.51.19-1.27.38-1.73a25.11,25.11,0,0,1,2.81-5.6c.17-.23.11-.39-.11-.47a14,14,0,0,1-3.48-2.09,19.67,19.67,0,0,1-2.4-1.89l.93-.09,5.26,0a4.09,4.09,0,0,1,1.39.27.35.35,0,0,0,.43-.07c.63-2.05,1.32-4.06,2-6.07.23.52.42,1.06.62,1.49a17.66,17.66,0,0,1,1.58,4.53.29.29,0,0,0,.21.24,28.87,28.87,0,0,0,4.05.23c.93,0,2,0,3,.12A12.2,12.2,0,0,1,19.84,11.71Z"
       id="path950" />
  </g>
</svg>
